<svg xmlns="http://www.w3.org/2000/svg" width="1599.928" height="1601.59" viewBox="0 0 1926 1928">
  <defs>
    <style>
      .cls-1 {
        fill-rule: evenodd;
      }
    </style>
  </defs>
  <path class="cls-1" d="M1354,0c213.28-3.206,323.74,108.844,373,270,15.26,49.907,33.29,139.789,22,208-8.12,49.064-4.68,93.746-14,138-15.64,74.292-28.31,151.536-57,215l85,111c74.61,105.79,131.34,221.87,160,374,20.93,111.11-27.19,274.89-98,300-56.43,20.01-99.93-21.7-108-65-6.46-34.68,12.84-53.32,23-72,16.59-30.5,31.77-81.68,23-132-17.16-98.48-47.98-174.08-91-246q-31.995-48.495-64-97c-0.33.67-.67,1.33-1,2q-37.995,72.495-76,145c-63.31,106.03-133.98,201.84-208,296-27.33,34.77-57.48,76.55-92,104,0.33,0.67.67,1.33,1,2q36.99,9,74,18c60.11,14.29,110.43,9.18,132,62,5.66,13.86,8.34,36.85,3,54q-7.5,13.995-15,28c-23.4,30.12-69.76,32.12-116,22-48.27-10.57-95.79-19.17-141-33q-37.995-12-76-24c-25.04,31.27-86.81,68.57-122,92-113.7,75.68-334.469,203.13-533,141-45.175-14.14-84.286-36.11-118-62-73.07-56.11-112.559-141.67-136-248-6-27.21-3.209-53.99-8-84-6.9-43.2-1.762-99.8,5-138,18.629-105.25,31.775-197.96,66-285q-34.5-43.5-69-87C116.6,923.149,61.174,828.372,26,717c-9.794-31.01-15.538-63.909-22-98-6.912-36.465-6.906-90.184,0-126C37.136,321.147,134.471,232.534,297,191c121.454-31.037,289-12.6,398,17l103,30c8.448,2.969,27.774,11.692,34,8l78-61c58.551-41.887,122.29-84.647,191-115,48.98-21.64,99.63-41.617,156-56l62-11Zm10,162-61,8a722.869,722.869,0,0,0-118,40c-42.35,18.509-83.04,42.113-121,66q-30.495,21-61,42c0.33,0.667.67,1.333,1,2,45.81,14.207,103.72,52.083,144,76a2681.422,2681.422,0,0,1,281,192q60.99,53.994,122,108,10.995-47,22-94,6-43,12-86c5.65-33.178,6.54-80.485,1-114-5.12-30.963-4.94-57.514-13-84C1544.62,224.694,1486.62,161.4,1364,162ZM428,338l-68,6c-58.687,12.262-117.262,29.762-149,69-16.836,20.814-32.136,43.113-41,72-15.458,50.374-6.424,121.457,7,166,33.077,109.758,85.1,187.154,140,272l2-1,20-41c18.828-36.929,37.5-72.487,58-107,58.427-98.343,120.779-188.333,189-276,33.326-42.825,75.252-79.183,108-122v-1l-90-21C550.139,342.062,491.768,338.262,428,338Zm437,97c-38.978,43.313-84.5,81.125-121,127C663.963,662.606,591.527,764.151,524,879a1264.342,1264.342,0,0,0-68,133q-11,24.99-22,50,21.5,22.005,43,44l119,106c95.582,74.53,194.519,138.71,303,202,35.458,20.69,72.865,38.83,112,56l50,22,65-65q51.99-60.495,104-121c67.08-88.55,127.33-181.14,185-280,29.29-50.211,50.86-104.875,76-159-35.5-46.927-93.56-94.25-140-131-87.29-69.07-175.54-136.1-274-195C1009.86,500.837,937.974,470.2,865,435ZM687,1260c-0.4-56.21,11.645-108.06,22-156q24.5-123.99,49-248c10.652-65.235-45.472-79.842-45-130,48.1-7.683,101.493-17.088,159-18,11.344-.18,55.065-2.382,59,1,14.188,13.74,17.092,47.827,17,75,51.447-32.606,189.21-138.882,258-50,14.62,18.891,19.95,39.614,25,69,5.6,32.624-6.47,72.1-13,98q-19.005,83.991-38,168c-4.27,18.01-14.03,85.37,1,96,12.55,4.11,55.97-25.06,70-30q10.995,22.5,22,45c-46.44,34.29-90.91,69.38-155,87-61.34,16.86-108.25-10.15-122-55-12.412-40.47-1.662-95.8,7-132q17-76.485,34-153c4.72-19.71,18.8-88.689,2-102-22.53-17.849-86.164,19.479-101,27q-12.5,55.494-25,111c-22.359,87.34-40.743,178.41-44,280q-23,5.505-46,11C781.536,1261.92,733.867,1259.82,687,1260Zm-313-28c-33.965,149.92-68.637,351.93,24,469,106.46,134.54,338.447,25.51,439-36,26.831-16.41,64.149-32.38,84-56v-1c-45.588-14.14-103.839-52.15-144-76a2687.355,2687.355,0,0,1-281-192Q435.006,1286,374,1232Zm1213,317c136.63-2.43,143.24,180.14,19,201-72.47,12.17-132.1-68.14-105-137a103.359,103.359,0,0,1,56-57Q1572,1552.505,1587,1549Z"/>
</svg>
