<!-- Generated by IcoMoon.io -->
<svg version="1.1" xmlns="http://www.w3.org/2000/svg" width="32" height="32" viewBox="0 0 32 32">
<title>neutron</title>
<path fill="#14131a" d="M22.473 0c3.54-0.053 5.373 1.807 6.191 4.481 0.253 0.828 0.553 2.32 0.365 3.452-0.135 0.814-0.078 1.556-0.232 2.29-0.26 1.233-0.47 2.515-0.946 3.568l1.411 1.842c1.238 1.756 2.18 3.682 2.656 6.207 0.347 1.844-0.451 4.563-1.627 4.979-0.937 0.332-1.659-0.36-1.793-1.079-0.107-0.576 0.213-0.885 0.382-1.195 0.275-0.506 0.527-1.356 0.382-2.191-0.285-1.635-0.796-2.889-1.51-4.083q-0.531-0.805-1.062-1.61c-0.005 0.011-0.011 0.022-0.017 0.033q-0.631 1.203-1.261 2.407c-1.051 1.76-2.224 3.35-3.452 4.913-0.454 0.577-0.954 1.271-1.527 1.726 0.005 0.011 0.011 0.022 0.017 0.033q0.614 0.149 1.228 0.299c0.998 0.237 1.833 0.152 2.191 1.029 0.094 0.23 0.138 0.612 0.050 0.896q-0.124 0.232-0.249 0.465c-0.388 0.5-1.158 0.533-1.925 0.365-0.801-0.175-1.59-0.318-2.34-0.548q-0.631-0.199-1.261-0.398c-0.416 0.519-1.441 1.138-2.025 1.527-1.887 1.256-5.551 3.371-8.846 2.34-0.75-0.235-1.399-0.599-1.958-1.029-1.213-0.931-1.868-2.351-2.257-4.116-0.1-0.452-0.053-0.896-0.133-1.394-0.115-0.717-0.029-1.656 0.083-2.29 0.309-1.747 0.527-3.286 1.095-4.73q-0.573-0.722-1.145-1.444c-1.019-1.425-1.939-2.998-2.523-4.846-0.163-0.515-0.258-1.061-0.365-1.627-0.115-0.605-0.115-1.497 0-2.091 0.55-2.852 2.166-4.323 4.863-5.012 2.016-0.515 4.797-0.209 6.606 0.282l1.71 0.498c0.14 0.049 0.461 0.194 0.564 0.133l1.295-1.012c0.972-0.695 2.030-1.405 3.17-1.909 0.813-0.359 1.654-0.691 2.589-0.929l1.029-0.183zM22.639 2.689l-1.012 0.133c-0.758 0.188-1.41 0.415-2.035 0.694l0.076-0.030c-0.703 0.307-1.378 0.699-2.008 1.095q-0.506 0.349-1.012 0.697c0.005 0.011 0.011 0.022 0.017 0.033 0.76 0.236 1.721 0.864 2.39 1.261 1.787 1.068 3.31 2.119 4.76 3.259l-0.096-0.073q1.012 0.896 2.025 1.793 0.183-0.78 0.365-1.56 0.1-0.714 0.199-1.427c0.094-0.551 0.109-1.336 0.017-1.892-0.085-0.514-0.082-0.955-0.216-1.394-0.471-1.549-1.434-2.599-3.469-2.589zM7.104 5.61l-1.129 0.1c-0.974 0.204-1.946 0.494-2.473 1.145-0.279 0.345-0.533 0.716-0.68 1.195-0.257 0.836-0.107 2.016 0.116 2.755 0.549 1.822 1.412 3.106 2.324 4.515l0.033-0.017 0.332-0.681c0.313-0.613 0.622-1.203 0.963-1.776 0.97-1.632 2.005-3.126 3.137-4.581 0.553-0.711 1.249-1.314 1.793-2.025v-0.017l-1.494-0.349c-0.894-0.198-1.863-0.261-2.921-0.266zM14.357 7.22c-0.647 0.719-1.402 1.346-2.008 2.108-1.328 1.67-2.531 3.355-3.651 5.261-0.364 0.602-0.741 1.327-1.075 2.074l-0.053 0.133q-0.183 0.415-0.365 0.83 0.357 0.365 0.714 0.73l1.975 1.759c1.586 1.237 3.229 2.302 5.029 3.353 0.588 0.343 1.209 0.644 1.859 0.929l0.83 0.365 1.079-1.079q0.863-1.004 1.726-2.008c1.113-1.47 2.113-3.006 3.071-4.647 0.486-0.833 0.844-1.741 1.261-2.639-0.589-0.779-1.553-1.564-2.324-2.174-1.449-1.146-2.914-2.259-4.548-3.236-1.114-0.667-2.308-1.175-3.519-1.759zM11.402 20.913c0.778-0.003 1.569 0.032 2.257-0.1 0.255-0.061 0.509-0.122 0.764-0.183 0.054-1.686 0.359-3.198 0.73-4.647 0.138-0.614 0.277-1.228 0.415-1.842 0.246-0.125 1.302-0.744 1.676-0.448 0.279 0.221 0.045 1.366-0.033 1.693-0.188 0.847-0.376 1.693-0.564 2.539-0.144 0.601-0.322 1.519-0.116 2.191 0.228 0.744 1.007 1.193 2.025 0.913 1.064-0.292 1.802-0.875 2.573-1.444-0.122-0.249-0.244-0.498-0.365-0.747-0.233 0.082-0.954 0.566-1.162 0.498-0.249-0.176-0.087-1.294-0.017-1.593 0.21-0.93 0.42-1.859 0.631-2.788 0.108-0.43 0.309-1.085 0.216-1.627-0.084-0.488-0.172-0.832-0.415-1.145-1.142-1.475-3.428 0.289-4.282 0.83 0.002-0.451-0.047-1.017-0.282-1.245-0.065-0.056-0.791-0.020-0.979-0.017-0.954 0.015-1.841 0.171-2.639 0.299-0.008 0.832 0.924 1.075 0.747 2.158-0.271 1.372-0.542 2.744-0.813 4.116-0.172 0.796-0.372 1.656-0.365 2.589zM6.207 20.448c-0.564 2.488-1.139 5.841 0.398 7.784 1.767 2.233 5.617 0.423 7.286-0.598 0.445-0.272 1.065-0.537 1.394-0.929v-0.017c-0.757-0.235-1.723-0.866-2.39-1.261-1.788-1.068-3.31-2.12-4.76-3.259l0.096 0.073q-1.012-0.896-2.025-1.793zM26.34 25.71c-0.166 0.039-0.336 0.079-0.498 0.116l-0.011 0.004c-0.414 0.177-0.744 0.513-0.918 0.942-0.45 1.143 0.54 2.476 1.743 2.274 2.062-0.346 1.952-3.376-0.315-3.336z"></path>
</svg>
